<?xml version="1.0" encoding="UTF-8" standalone="no"?>
<!-- Created with Inkscape (http://www.inkscape.org/) -->

<svg
   version="1.1"
   id="svg10234"
   width="800"
   height="800"
   viewBox="0 0 800 800"
   sodipodi:docname="happy-character-logotype-publicdomainvectors.org.svg"
   inkscape:version="1.2 (dc2aedaf03, 2022-05-15)"
   xmlns:inkscape="http://www.inkscape.org/namespaces/inkscape"
   xmlns:sodipodi="http://sodipodi.sourceforge.net/DTD/sodipodi-0.dtd"
   xmlns="http://www.w3.org/2000/svg"
   xmlns:svg="http://www.w3.org/2000/svg">
  <defs
     id="defs10238">
    <clipPath
       clipPathUnits="userSpaceOnUse"
       id="clipPath10250">
      <path
         d="M 0,600 H 600 V 0 H 0 Z"
         id="path10248" />
    </clipPath>
  </defs>
  <sodipodi:namedview
     id="namedview10236"
     pagecolor="#ffffff"
     bordercolor="#000000"
     borderopacity="0.25"
     inkscape:showpageshadow="2"
     inkscape:pageopacity="0.0"
     inkscape:pagecheckerboard="0"
     inkscape:deskcolor="#d1d1d1"
     showgrid="false"
     inkscape:zoom="1.04625"
     inkscape:cx="400"
     inkscape:cy="400.4779"
     inkscape:window-width="1920"
     inkscape:window-height="1017"
     inkscape:window-x="-8"
     inkscape:window-y="-8"
     inkscape:window-maximized="1"
     inkscape:current-layer="g10242">
    <inkscape:page
       x="0"
       y="0"
       id="page10240"
       width="800"
       height="800" />
  </sodipodi:namedview>
  <g
     id="g10242"
     inkscape:groupmode="layer"
     inkscape:label="Page 1"
     transform="matrix(1.3333333,0,0,-1.3333333,0,800)">
    <g
       id="g10244">
      <g
         id="g10246"
         clip-path="url(#clipPath10250)">
        <g
           id="g10252"
           transform="translate(146.0957,537.2812)">
          <path
             d="M 0,0 C 0.001,-0.001 0.003,-0.002 0.004,-0.004 0.003,0.001 0.001,0.006 0,0.011 Z"
             style="fill:#be6e00;fill-opacity:1;fill-rule:nonzero;stroke:none"
             id="path10254" />
        </g>
        <g
           id="g10256"
           transform="translate(146.0996,537.2773)">
          <path
             d="M 0,0 C 0.427,-1.888 0.889,-3.767 1.379,-5.639 L 7.137,-8.438 C 4.781,-5.696 2.403,-2.887 0,0"
             style="fill:#be6e00;fill-opacity:1;fill-rule:nonzero;stroke:none"
             id="path10258" />
        </g>
        <g
           id="g10260"
           transform="translate(406.4902,514.7627)">
          <path
             d="M 0,0 14.715,-0.371 C 18.28,16.744 20.202,33.903 19.598,51.136 13.065,31.197 6.532,14.446 0,0"
             style="fill:#006348;fill-opacity:1;fill-rule:nonzero;stroke:none"
             id="path10262" />
        </g>
        <g
           id="g10264"
           transform="translate(276.1494,477.5586)">
          <path
             d="m 0,0 47.746,31.651 c -4.3,1.391 -8.885,2.145 -13.647,2.145 -16.982,0 -31.736,-9.557 -39.183,-23.581 z"
             style="fill:#8dcb00;fill-opacity:1;fill-rule:nonzero;stroke:none"
             id="path10266" />
        </g>
        <g
           id="g10268"
           transform="translate(153.2363,528.8389)">
          <path
             d="M 0,0 -5.758,2.8 C -2.144,-11.001 3.131,-24.365 9.49,-37.423 l 11.924,13.68 C 14.475,-16.431 7.35,-8.556 0,0"
             style="fill:#cd6f00;fill-opacity:1;fill-rule:nonzero;stroke:none"
             id="path10270" />
        </g>
        <g
           id="g10272"
           transform="translate(400.2217,501.5762)">
          <path
             d="m 0,0 3.224,-46.842 c 7.226,19.858 13.608,39.728 17.759,59.657 L 6.269,13.186 C 4.179,8.565 2.09,4.178 0,0"
             style="fill:#008949;fill-opacity:1;fill-rule:nonzero;stroke:none"
             id="path10274" />
        </g>
        <g
           id="g10276"
           transform="translate(271.0654,487.7734)">
          <path
             d="m 0,0 c -1.187,-2.235 -2.188,-4.584 -2.983,-7.026 l 8.067,-3.189 z"
             style="fill:#c0c300;fill-opacity:1;fill-rule:nonzero;stroke:none"
             id="path10278" />
        </g>
        <g
           id="g10280"
           transform="translate(268.082,480.7471)">
          <path
             d="m 0,0 c -0.796,-2.444 -1.385,-4.983 -1.746,-7.593 l 9.813,4.404 z"
             style="fill:#d2c400;fill-opacity:1;fill-rule:nonzero;stroke:none"
             id="path10282" />
        </g>
        <g
           id="g10284"
           transform="translate(182.3828,497.0977)">
          <path
             d="m 0,0 -0.962,-39.176 c 3.687,-5.96 7.501,-11.876 11.384,-17.762 l 34.79,15.612 C 30.73,-29.335 15.826,-16.063 0,0"
             style="fill:#d2c400;fill-opacity:1;fill-rule:nonzero;stroke:none"
             id="path10286" />
        </g>
        <g
           id="g10288"
           transform="translate(373.0742,456.6406)">
          <path
             d="m 0,0 30.32,-2.047 c 0.017,0.047 0.034,0.094 0.051,0.141 L 27.147,44.936 C 18.099,26.845 9.049,12.644 0,0"
             style="fill:#00ae26;fill-opacity:1;fill-rule:nonzero;stroke:none"
             id="path10290" />
        </g>
        <g
           id="g10292"
           transform="translate(353.6563,457.9512)">
          <path
             d="m 0,0 c 0.608,2.927 0.93,5.959 0.93,9.066 0,0.322 -0.006,0.642 -0.013,0.962 l -9.028,-9.48 z"
             style="fill:#00ae26;fill-opacity:1;fill-rule:nonzero;stroke:none"
             id="path10294" />
        </g>
        <g
           id="g10296"
           transform="translate(354.5732,467.9795)">
          <path
             d="M 0,0 C -0.237,11.141 -4.585,21.272 -11.59,28.936 L -9.028,-9.48 Z"
             style="fill:#0aaa22;fill-opacity:1;fill-rule:nonzero;stroke:none"
             id="path10298" />
        </g>
        <g
           id="g10300"
           transform="translate(345.5449,458.499)">
          <path
             d="m 0,0 -2.561,38.416 c -5.129,5.613 -11.683,9.901 -19.088,12.295 L -69.396,19.06 Z"
             style="fill:#4cc014;fill-opacity:1;fill-rule:nonzero;stroke:none"
             id="path10302" />
        </g>
        <g
           id="g10304"
           transform="translate(174.6504,505.0957)">
          <path
             d="M 0,0 -11.924,-13.68 C -6.387,-25.049 -0.026,-36.186 6.771,-47.174 L 7.732,-7.998 C 5.18,-5.406 2.603,-2.742 0,0"
             style="fill:#d89800;fill-opacity:1;fill-rule:nonzero;stroke:none"
             id="path10306" />
        </g>
        <g
           id="g10308"
           transform="translate(201.8896,426.5781)">
          <path
             d="M 0,0 C 12.344,-18.268 24.889,-36.347 35.78,-54.652 L 89.654,-35.03 Z"
             style="fill:#e8e100;fill-opacity:1;fill-rule:nonzero;stroke:none"
             id="path10310" />
        </g>
        <g
           id="g10312"
           transform="translate(276.1494,477.5586)">
          <path
             d="m 0,0 8.347,-46.634 c 7.26,-5.19 16.15,-8.245 25.752,-8.245 2.322,0 4.602,0.18 6.828,0.524 l 28.469,35.295 z"
             style="fill:#8ee000;fill-opacity:1;fill-rule:nonzero;stroke:none"
             id="path10314" />
        </g>
        <g
           id="g10316"
           transform="translate(298.2793,399.8984)">
          <path
             d="M 0,0 C -3.228,2.657 -6.435,5.254 -9.627,7.806 L -6.735,-8.35 Z"
             style="fill:#8ee000;fill-opacity:1;fill-rule:nonzero;stroke:none"
             id="path10318" />
        </g>
        <g
           id="g10320"
           transform="translate(266.3359,473.1543)">
          <path
             d="m 0,0 c -0.278,-2.006 -0.426,-4.055 -0.426,-6.137 0,-14.882 7.336,-28.051 18.586,-36.092 L 9.813,4.404 Z"
             style="fill:#cddf00;fill-opacity:1;fill-rule:nonzero;stroke:none"
             id="path10322" />
        </g>
        <g
           id="g10324"
           transform="translate(288.6523,407.7041)">
          <path
             d="m 0,0 c -20.464,16.358 -40.328,30.902 -61.058,48.067 l -34.79,-15.611 c 2.998,-4.543 6.036,-9.068 9.085,-13.582 l 89.655,-35.03 z"
             style="fill:#cddf00;fill-opacity:1;fill-rule:nonzero;stroke:none"
             id="path10326" />
        </g>
        <g
           id="g10328"
           transform="translate(364.9658,445.665)">
          <path
             d="m 0,0 28.033,-18.524 c 3.553,9.151 7.064,18.3 10.396,27.453 L 8.108,10.976 C 5.406,7.199 2.703,3.561 0,0"
             style="fill:#0ab61e;fill-opacity:1;fill-rule:nonzero;stroke:none"
             id="path10330" />
        </g>
        <g
           id="g10332"
           transform="translate(352.5938,453.8408)">
          <path
             d="M 0,0 C 0.418,1.344 0.772,2.716 1.062,4.11 L -7.049,4.658 Z"
             style="fill:#0ab61e;fill-opacity:1;fill-rule:nonzero;stroke:none"
             id="path10334" />
        </g>
        <g
           id="g10336"
           transform="translate(334.8506,405.9902)">
          <path
             d="m 0,0 -11.053,-54.272 49.84,24.4 C 44.808,-12.839 51.551,4.159 58.148,21.15 L 30.115,39.675 C 20.077,26.451 10.038,14.285 0,0"
             style="fill:#44d018;fill-opacity:1;fill-rule:nonzero;stroke:none"
             id="path10338" />
        </g>
        <g
           id="g10340"
           transform="translate(340.7217,434.8174)">
          <path
             d="M 0,0 C 5.448,5.157 9.59,11.681 11.872,19.023 L 4.823,23.682 Z"
             style="fill:#44d018;fill-opacity:1;fill-rule:nonzero;stroke:none"
             id="path10342" />
        </g>
        <g
           id="g10344"
           transform="translate(323.7979,351.7187)">
          <path
             d="M 0,0 11.053,54.272 C 5.887,46.919 0.721,39.006 -4.446,30.097 -11.6,36.515 -18.605,42.487 -25.519,48.18 l -6.735,-8.351 z"
             style="fill:#87e30b;fill-opacity:1;fill-rule:nonzero;stroke:none"
             id="path10346" />
        </g>
        <g
           id="g10348"
           transform="translate(317.0762,423.2031)">
          <path
             d="m 0,0 c 9.087,1.405 17.263,5.571 23.645,11.614 l 4.824,23.682 z"
             style="fill:#87e30b;fill-opacity:1;fill-rule:nonzero;stroke:none"
             id="path10350" />
        </g>
        <g
           id="g10352"
           transform="translate(291.5439,391.5479)">
          <path
             d="m 0,0 -53.874,-19.622 c 6.898,-11.594 13.131,-23.278 18.228,-35.16 l 15.121,-9.971 z"
             style="fill:#f0f000;fill-opacity:1;fill-rule:nonzero;stroke:none"
             id="path10354" />
        </g>
        <g
           id="g10356"
           transform="translate(358.9248,326.2891)">
          <path
             d="M 0,0 C 3.686,16.661 8.857,33.262 14.713,49.829 L -35.127,25.43 Z"
             style="fill:#5dd515;fill-opacity:1;fill-rule:nonzero;stroke:none"
             id="path10358" />
        </g>
        <g
           id="g10360"
           transform="translate(355.1621,305.7061)">
          <path
             d="m 0,0 c 0.252,1.687 0.511,3.371 0.782,5.056 0.834,5.182 1.836,10.357 2.981,15.527 l -35.127,25.43 z"
             style="fill:#a5eb00;fill-opacity:1;fill-rule:nonzero;stroke:none"
             id="path10362" />
        </g>
        <g
           id="g10364"
           transform="translate(271.0186,326.7949)">
          <path
             d="M 0,0 52.779,24.924 20.525,64.753 Z"
             style="fill:#d2f300;fill-opacity:1;fill-rule:nonzero;stroke:none"
             id="path10366" />
        </g>
        <g
           id="g10368"
           transform="translate(255.8975,336.7656)">
          <path
             d="m 0,0 c 1.494,-3.483 2.892,-6.982 4.179,-10.502 l 10.942,0.531 z"
             style="fill:#fce200;fill-opacity:1;fill-rule:nonzero;stroke:none"
             id="path10370" />
        </g>
        <g
           id="g10372"
           transform="translate(295.6973,251.5352)">
          <path
             d="M 0,0 28.101,100.183 -24.679,75.26 Z"
             style="fill:#eff800;fill-opacity:1;fill-rule:nonzero;stroke:none"
             id="path10374" />
        </g>
        <g
           id="g10376"
           transform="translate(295.6973,251.5352)">
          <path
             d="m 0,0 55.684,21.596 c 0.934,10.879 2.163,21.739 3.781,32.575 l -31.364,46.012 z"
             style="fill:#def500;fill-opacity:1;fill-rule:nonzero;stroke:none"
             id="path10378" />
        </g>
        <g
           id="g10380"
           transform="translate(269.7246,271.165)">
          <path
             d="m 0,0 c -0.149,-8.651 -0.987,-17.394 -2.342,-26.202 l 28.315,6.572 z"
             style="fill:#ffe100;fill-opacity:1;fill-rule:nonzero;stroke:none"
             id="path10382" />
        </g>
        <g
           id="g10384"
           transform="translate(271.0186,326.7949)">
          <path
             d="m 0,0 -10.942,-0.531 c 3.732,-10.208 6.544,-20.58 8.142,-31.181 1.19,-7.884 1.646,-15.862 1.506,-23.918 l 25.973,-19.63 z"
             style="fill:#fff200;fill-opacity:1;fill-rule:nonzero;stroke:none"
             id="path10386" />
        </g>
        <g
           id="g10388"
           transform="translate(349.5977,245.7734)">
          <path
             d="M 0,0 C 0.426,9.13 1.002,18.25 1.783,27.357 L -53.9,5.762 Z"
             style="fill:#e5f300;fill-opacity:1;fill-rule:nonzero;stroke:none"
             id="path10390" />
        </g>
        <g
           id="g10392"
           transform="translate(295.6973,251.5352)">
          <path
             d="m 0,0 -28.315,-6.572 c -3.176,-20.651 -9.196,-41.671 -15.877,-62.777 l 20.979,-13.241 z"
             style="fill:#ffdd00;fill-opacity:1;fill-rule:nonzero;stroke:none"
             id="path10394" />
        </g>
        <g
           id="g10396"
           transform="translate(317.1875,157.3779)">
          <path
             d="m 0,0 31.02,-8.026 c 0.208,26.873 -0.004,53.772 0.792,80.607 L -7.888,40.925 C -5.259,27.283 -2.629,13.642 0,0"
             style="fill:#fadc00;fill-opacity:1;fill-rule:nonzero;stroke:none"
             id="path10398" />
        </g>
        <g
           id="g10400"
           transform="translate(287.8838,164.9609)">
          <path
             d="M 0,0 13.022,26.647 -15.399,3.984 Z"
             style="fill:#fadc00;fill-opacity:1;fill-rule:nonzero;stroke:none"
             id="path10402" />
        </g>
        <g
           id="g10404"
           transform="translate(272.4844,168.9453)">
          <path
             d="m 0,0 28.421,22.663 6.945,14.214 c 0.484,-2.507 0.967,-5.014 1.449,-7.52 l 39.701,31.657 c 0.156,5.274 0.352,10.546 0.597,15.814 l -53.9,5.762 z"
             style="fill:#ffec00;fill-opacity:1;fill-rule:nonzero;stroke:none"
             id="path10406" />
        </g>
        <g
           id="g10408"
           transform="translate(251.5049,182.1865)">
          <path
             d="m 0,0 c -3.873,-12.233 -7.966,-24.495 -11.857,-36.731 l 32.837,23.49 z"
             style="fill:#ffba00;fill-opacity:1;fill-rule:nonzero;stroke:none"
             id="path10410" />
        </g>
        <g
           id="g10412"
           transform="translate(272.2881,133.0449)">
          <path
             d="M 0,0 15.596,31.916 0.196,35.9 Z"
             style="fill:#ffb900;fill-opacity:1;fill-rule:nonzero;stroke:none"
             id="path10414" />
        </g>
        <g
           id="g10416"
           transform="translate(324.8066,117.8447)">
          <path
             d="m 0,0 23.235,16.757 c 0.076,4.915 0.127,9.832 0.165,14.75 L -7.619,39.533 C -5.079,26.355 -2.54,13.178 0,0"
             style="fill:#ffb900;fill-opacity:1;fill-rule:nonzero;stroke:none"
             id="path10418" />
        </g>
        <g
           id="g10420"
           transform="translate(239.6484,145.4551)">
          <path
             d="m 0,0 c -3.827,-12.037 -7.455,-24.049 -10.482,-35.982 l 23.601,-16.374 19.521,39.946 0.196,35.9 z"
             style="fill:#ffab00;fill-opacity:1;fill-rule:nonzero;stroke:none"
             id="path10422" />
        </g>
        <g
           id="g10424"
           transform="translate(337.1807,53.6475)">
          <path
             d="m 0,0 5.786,-2.317 c 3.487,27.643 4.65,55.434 5.075,83.271 L -12.374,64.197 C -8.249,42.797 -4.125,21.398 0,0"
             style="fill:#ff9900;fill-opacity:1;fill-rule:nonzero;stroke:none"
             id="path10426" />
        </g>
        <g
           id="g10428"
           transform="translate(220.9531,55.1328)">
          <path
             d="M 0,0 17.353,8.372 31.814,37.966 8.213,54.34 C 3.557,35.978 0.325,17.8 0,0"
             style="fill:#ff8800;fill-opacity:1;fill-rule:nonzero;stroke:none"
             id="path10430" />
        </g>
        <g
           id="g10432"
           transform="translate(221.0166,46.9131)">
          <path
             d="M 0,0 5.682,-7.164 17.289,16.592 -0.064,8.22 C -0.113,5.471 -0.094,2.73 0,0"
             style="fill:#ff7200;fill-opacity:1;fill-rule:nonzero;stroke:none"
             id="path10434" />
        </g>
        <g
           id="g10436"
           transform="translate(340.501,36.4199)">
          <path
             d="M 0,0 0.377,0.191 C 1.152,5.092 1.846,9.999 2.466,14.91 L -3.32,17.228 C -2.214,11.485 -1.107,5.742 0,0"
             style="fill:#ff7400;fill-opacity:1;fill-rule:nonzero;stroke:none"
             id="path10438" />
        </g>
        <g
           id="g10440"
           transform="translate(340.6924,35.4229)">
          <path
             d="M 0,0 C 0.064,0.396 0.123,0.792 0.186,1.188 L -0.191,0.997 C -0.128,0.664 -0.063,0.333 0,0"
             style="fill:#fc6200;fill-opacity:1;fill-rule:nonzero;stroke:none"
             id="path10442" />
        </g>
        <g
           id="g10444"
           transform="translate(222.4551,31.0674)">
          <path
             d="m 0,0 4.243,8.682 -5.681,7.164 C -1.256,10.525 -0.79,5.241 0,0"
             style="fill:#ff6800;fill-opacity:1;fill-rule:nonzero;stroke:none"
             id="path10446" />
        </g>
      </g>
    </g>
  </g>
</svg>
